<svg xmlns="http://www.w3.org/2000/svg" xmlns:xlink="http://www.w3.org/1999/xlink" version="1.1" id="Capa_1" x="0px" y="0px" viewBox="0 0 512 512" style="enable-background:new 0 0 512 512;" xml:space="preserve" width="512px" height="512px">
<g>
	<path d="M454.625,342.625l-35.883-35.879c-12-12.004-18.742-28.281-18.742-45.254V180.93c0-69.117-47.07-130.172-112.375-145.223   C287.766,34.477,288,33.27,288,32c0-17.641-14.359-32-32-32s-32,14.359-32,32c0,1.25,0.227,2.434,0.367,3.645   C160.086,50.078,112,107.359,112,176v85.492c0,16.973-6.742,33.25-18.742,45.254l-35.883,35.879   c-6,6.004-9.375,14.141-9.375,22.629V400h416v-34.746C464,356.766,460.625,348.629,454.625,342.625z" fill="#FFFFFF"/>
	<path d="M192,448c0,35.344,28.656,64,64,64c35.344,0,64-28.656,64-64v-16H192V448z" fill="#FFFFFF"/>
</g>
</svg>
