<svg xmlns:dc="http://purl.org/dc/elements/1.1/" xmlns:cc="http://creativecommons.org/ns#" xmlns:rdf="http://www.w3.org/1999/02/22-rdf-syntax-ns#" xmlns:svg="http://www.w3.org/2000/svg" xmlns="http://www.w3.org/2000/svg" xmlns:sodipodi="http://sodipodi.sourceforge.net/DTD/sodipodi-0.dtd" xmlns:inkscape="http://www.inkscape.org/namespaces/inkscape" viewBox="0 0 100 125" version="1.1" x="0px" y="0px"><g transform="translate(0,-952.36216)"><path fill="#1289FE" d="m 50.080078,952.3622 c -10.947582,0 -20.822456,5.71672 -27.880859,14.78519 -7.058403,9.06846 -11.37304,21.50625 -11.373047,35.21441 4e-6,13.7081 4.314644,26.1478 11.373047,35.2163 7.058403,9.0685 16.933276,14.7832 27.880859,14.7832 10.947583,0 20.820504,-5.7147 27.878906,-14.7832 7.058403,-9.0685 11.373043,-21.5082 11.373047,-35.2163 -7e-6,-13.70816 -4.314644,-26.14595 -11.373047,-35.21441 C 70.900582,958.07892 61.02766,952.3622 50.080078,952.3622 Z m 0,2.95704 c 9.910275,0 18.918914,5.14604 25.529297,13.6389 6.610383,8.49286 10.749994,20.31407 10.75,33.40366 -4e-6,13.0896 -4.139617,24.9127 -10.75,33.4056 -6.610383,8.4928 -15.619021,13.6388 -25.529297,13.6388 -9.910276,0 -18.920866,-5.146 -25.53125,-13.6388 -6.610383,-8.4929 -10.749995,-20.316 -10.75,-33.4056 7e-6,-13.08959 4.139617,-24.9108 10.75,-33.40366 6.610383,-8.49286 15.620976,-13.6389 25.53125,-13.6389 z M 0.0078125,1002.8561 c 0.08548747,27.3635 22.4765105,49.5021 50.0703125,49.5061 27.594564,0 49.986775,-22.1419 50.072265,-49.5061 l -0.0293,-15.91595 c -0.394578,5.8323 -22.678895,16.48565 -50.042965,16.48915 -27.367874,0 -49.65809865,-10.65604 -50.05273437,-16.48915 z"/></g></svg>
