<svg xmlns="http://www.w3.org/2000/svg" xmlns:xlink="http://www.w3.org/1999/xlink" version="1.1" x="0px" y="0px" viewBox="0 0 100 125" enable-background="new 0 0 100 100" xml:space="preserve"><g><path fill="#1289FE" d="M91.016,38.031h-7.983V26.064c0-0.033-0.008-0.064-0.01-0.098c-0.005-0.092-0.01-0.184-0.027-0.275   c-0.014-0.069-0.039-0.134-0.06-0.2c-0.017-0.053-0.028-0.106-0.049-0.157c-0.031-0.075-0.073-0.145-0.113-0.214   c-0.021-0.038-0.038-0.079-0.063-0.116c-0.071-0.107-0.153-0.207-0.244-0.297L63.322,5.561c-0.007-0.007-0.016-0.012-0.022-0.019   c-0.083-0.081-0.173-0.155-0.269-0.219c-0.052-0.035-0.107-0.059-0.16-0.087c-0.057-0.03-0.11-0.064-0.17-0.089   c-0.066-0.028-0.135-0.043-0.203-0.063c-0.052-0.015-0.102-0.035-0.154-0.045C62.22,5.013,62.094,5,61.968,5H18.883   c-1.057,0-1.914,0.857-1.914,1.915v31.116H8.981c-1.143,0-2.066,0.93-2.06,2.074L6.915,69.473c0.002,1.155,0.938,2.07,2.083,2.07   h7.971v21.542c0,1.058,0.857,1.915,1.914,1.915h62.234c1.058,0,1.915-0.857,1.915-1.915V71.543h7.983   c1.141,0,2.069-0.915,2.069-2.07V40.105C93.085,38.961,92.156,38.031,91.016,38.031z M63.883,11.537l12.611,12.612H63.883V11.537z    M20.798,8.83h39.255v17.234c0,1.057,0.857,1.915,1.915,1.915h17.234v10.053H20.798V8.83z M77.927,44.121l-6.401,21.667H65.03   l-6.093-21.667h6.846l2.287,9.086c0.185,0.724,0.374,1.491,0.566,2.287c0.177-0.727,0.362-1.47,0.561-2.209l2.396-9.165H77.927z    M47.828,57.319c-3.563-1.395-5.368-3.639-5.368-6.67c0-4.041,3.103-6.861,7.538-6.861c2.032,0,4.306,0.61,5.499,1.216l0.763,0.388   l-1.446,5.224l-1.154-0.625c-0.564-0.304-2.009-0.789-3.479-0.789c-1.224,0-1.317,0.824-1.317,1.076c0,0.422,0,0.726,2.417,1.759   c3.471,1.442,5.088,3.579,5.088,6.722c0,3.24-2.084,7.029-7.97,7.029c-2.188,0-4.948-0.77-6.063-1.463l-0.59-0.367l0.89-5.401   l1.308,0.757c0.874,0.5,2.906,1.063,4.429,1.063c1.045,0,1.674-0.489,1.674-1.305C50.045,58.709,50.045,58.217,47.828,57.319z    M33.012,60.098c1.104,0,2.307-0.273,2.93-0.543l1.207-0.524l0.967,5.443l-0.656,0.354c-0.851,0.464-2.625,0.961-5.053,0.961   c-6.278,0-10.333-4.201-10.333-10.697c0-6.762,4.313-11.303,10.727-11.303c2.301,0,4.027,0.513,4.88,0.994l0.685,0.383   l-1.288,5.461l-1.152-0.523c-0.905-0.415-1.892-0.624-2.941-0.624c-2.937,0-4.62,1.949-4.62,5.353   C28.362,58.177,30.058,60.098,33.012,60.098z M79.202,91.17H20.798V71.543h58.404V91.17z"/></g></svg>
