<svg xmlns="http://www.w3.org/2000/svg" xmlns:xlink="http://www.w3.org/1999/xlink" version="1.1" x="0px" y="0px" viewBox="0 0 100 125" style="enable-background:new 0 0 100 100;" xml:space="preserve"><path fill="#8b9ea9" d="M23.6,41.9l7.2-5.7l16.1,12.9c0,0,22.8-25.8,42.1-36.5l1.4,4.2c0,0-25.2,22.7-38.9,54.2L23.6,41.9z"/><path fill="#8b9ea9" d="M82,36.5v41.3c0,2.4-1.9,4.3-4.3,4.3H20.2c-2.4,0-4.3-1.9-4.3-4.3V22.1c0-2.4,1.9-4.3,4.3-4.3h47.1l8-6.3H20.2  c-5.9,0-10.7,4.8-10.7,10.7V78c0,5.9,4.8,10.7,10.7,10.7h57.5c5.9,0,10.7-4.8,10.7-10.7V29.3L82,36.5z"/></svg>
