<svg xmlns="http://www.w3.org/2000/svg" width="50" height="50" viewBox="0 0 50 50">
    <path fill="#1289FE" d="M 40.09375 0 A 1.0001 1.0001 0 0 0 39.375 0.46875 L 37.75 3.15625 C 37.241028 3.119015 36.721703 3.115006 36.21875 3.15625 L 34.5625 0.5 A 1.0001 1.0001 0 0 0 33.3125 0.125 L 30.5 1.3125 A 1.0001 1.0001 0 0 0 29.90625 2.46875 L 30.59375 5.5 C 30.209069 5.8324724 29.864896 6.2004942 29.53125 6.59375 L 26.46875 5.90625 A 1.0001 1.0001 0 0 0 25.34375 6.53125 L 24.1875 9.34375 A 1.0001 1.0001 0 0 0 24.5625 10.59375 L 27.21875 12.25 C 27.18337 12.761382 27.17515 13.276535 27.21875 13.78125 L 24.59375 15.4375 A 1.0001 1.0001 0 0 0 24.21875 16.6875 L 25.40625 19.5 A 1.0001 1.0001 0 0 0 26.53125 20.09375 L 29.59375 19.40625 C 29.926412 19.789605 30.29467 20.137524 30.6875 20.46875 L 30 23.53125 A 1.0001 1.0001 0 0 0 30.59375 24.65625 L 33.4375 25.8125 A 1.0001 1.0001 0 0 0 34.65625 25.4375 L 36.34375 22.78125 C 36.867552 22.81708 37.389631 22.79706 37.90625 22.75 L 39.59375 25.40625 A 1.0001 1.0001 0 0 0 40.8125 25.78125 L 43.65625 24.59375 A 1.0001 1.0001 0 0 0 44.21875 23.4375 L 43.46875 20.375 C 43.843214 20.049941 44.206028 19.695851 44.53125 19.3125 L 47.625 19.96875 A 1.0001 1.0001 0 0 0 48.78125 19.34375 L 49.9375 16.53125 A 1.0001 1.0001 0 0 0 49.53125 15.28125 L 46.84375 13.625 C 46.87738 13.129667 46.85275 12.644804 46.8125 12.15625 L 49.46875 10.40625 A 1.0001 1.0001 0 0 0 49.875 9.1875 L 48.65625 6.375 A 1.0001 1.0001 0 0 0 47.5 5.78125 L 44.46875 6.53125 C 44.133278 6.1423326 43.772892 5.7735452 43.375 5.4375 L 44.03125 2.375 A 1.0001 1.0001 0 0 0 43.4375 1.21875 L 40.59375 0.0625 A 1.0001 1.0001 0 0 0 40.09375 0 z M 40.625 2.25 L 41.90625 2.78125 L 41.3125 5.5625 A 1.0001 1.0001 0 0 0 41.6875 6.5625 C 42.33162 7.033374 42.882151 7.5985599 43.34375 8.21875 A 1.0001 1.0001 0 0 0 44.40625 8.59375 L 47.15625 7.90625 L 47.6875 9.1875 L 45.28125 10.75 A 1.0001 1.0001 0 0 0 44.84375 11.75 C 44.962752 12.512855 44.955669 13.27818 44.84375 14.0625 A 1.0001 1.0001 0 0 0 45.3125 15.0625 L 47.75 16.5625 L 47.21875 17.8125 L 44.4375 17.21875 A 1.0001 1.0001 0 0 0 43.40625 17.625 C 42.940405 18.265647 42.398488 18.817655 41.78125 19.28125 A 1.0001 1.0001 0 0 0 41.40625 20.3125 L 42.09375 23.09375 L 40.8125 23.625 L 39.25 21.21875 A 1.0001 1.0001 0 0 0 38.25 20.75 C 37.490904 20.873718 36.725214 20.890605 35.9375 20.78125 A 1.0001 1.0001 0 0 0 34.9375 21.25 L 33.40625 23.65625 L 32.125 23.125 L 32.75 20.375 A 1.0001 1.0001 0 0 0 32.375 19.34375 C 31.729119 18.874664 31.152905 18.340176 30.6875 17.71875 A 1.0001 1.0001 0 0 0 29.6875 17.34375 L 26.9375 17.96875 L 26.375 16.65625 L 28.75 15.1875 A 1.0001 1.0001 0 0 0 29.21875 14.1875 C 29.095353 13.415159 29.073794 12.605779 29.1875 11.8125 A 1.0001 1.0001 0 0 0 28.71875 10.84375 L 26.34375 9.34375 L 26.875 8.0625 L 29.59375 8.65625 A 1.0001 1.0001 0 0 0 30.625 8.28125 C 31.100196 7.6316369 31.655648 7.0611739 32.28125 6.59375 A 1.0001 1.0001 0 0 0 32.65625 5.59375 L 32.03125 2.84375 L 33.3125 2.3125 L 34.8125 4.6875 A 1.0001 1.0001 0 0 0 35.8125 5.125 C 36.576733 5.0055887 37.366641 5.0094041 38.15625 5.125 A 1.0001 1.0001 0 0 0 39.15625 4.65625 L 40.625 2.25 z M 36.96875 7.875 C 34.985364 7.905929 33.103445 9.0859535 32.3125 11.03125 C 31.257909 13.624973 32.531271 16.632907 35.125 17.6875 C 37.719079 18.742236 40.696301 17.46834 41.75 14.875 C 42.804591 12.281277 41.562479 9.304593 38.96875 8.25 C 38.320319 7.9863523 37.629879 7.8646904 36.96875 7.875 z M 37 9.84375 C 37.403353 9.8416264 37.820681 9.9318977 38.21875 10.09375 C 39.811021 10.741157 40.553659 12.532723 39.90625 14.125 C 39.259949 15.71566 37.466921 16.459764 35.875 15.8125 C 34.282729 15.165093 33.540091 13.373527 34.1875 11.78125 C 34.511204 10.985114 35.116712 10.400466 35.84375 10.09375 C 36.207269 9.940392 36.596647 9.8458736 37 9.84375 z M 14.34375 17 A 1.0001 1.0001 0 0 0 13.53125 17.84375 L 12.90625 21.875 C 12.186376 22.095283 11.501304 22.374708 10.84375 22.71875 L 7.5 20.34375 A 1.0001 1.0001 0 0 0 6.21875 20.4375 L 3.46875 23.1875 A 1.0001 1.0001 0 0 0 3.375 24.46875 L 5.71875 27.8125 C 5.3745805 28.464737 5.0996828 29.158648 4.875 29.875 L 0.84375 30.5625 A 1.0001 1.0001 0 0 0 0 31.53125 L 0 35.40625 A 1.0001 1.0001 0 0 0 0.8125 36.40625 L 4.84375 37.09375 C 5.0722225 37.832491 5.3609968 38.515905 5.71875 39.1875 L 3.34375 42.5 A 1.0001 1.0001 0 0 0 3.4375 43.78125 L 6.1875 46.53125 A 1.0001 1.0001 0 0 0 7.46875 46.625 L 10.8125 44.28125 C 11.464414 44.62338 12.161955 44.903555 12.875 45.125 L 13.53125 49.15625 A 1.0001 1.0001 0 0 0 14.53125 50 L 18.40625 50 A 1.0001 1.0001 0 0 0 19.40625 49.1875 L 20.125 45.09375 C 20.831193 44.870152 21.511467 44.592261 22.15625 44.25 L 25.53125 46.625 A 1.0001 1.0001 0 0 0 26.8125 46.53125 L 29.5625 43.78125 A 1.0001 1.0001 0 0 0 29.65625 42.5 L 27.25 39.125 C 27.590733 38.473877 27.873547 37.807002 28.09375 37.09375 L 32.1875 36.40625 A 1.0001 1.0001 0 0 0 33 35.40625 L 33 31.53125 A 1.0001 1.0001 0 0 0 32.15625 30.5625 L 28.0625 29.875 C 27.843381 29.17669 27.584356 28.513641 27.25 27.875 L 29.625 24.46875 A 1.0001 1.0001 0 0 0 29.53125 23.1875 L 26.78125 20.4375 A 1.0001 1.0001 0 0 0 25.5 20.34375 L 22.15625 22.75 C 21.505324 22.405066 20.808682 22.130251 20.09375 21.90625 L 19.40625 17.84375 A 1.0001 1.0001 0 0 0 18.40625 17 L 14.53125 17 A 1.0001 1.0001 0 0 0 14.4375 17 A 1.0001 1.0001 0 0 0 14.34375 17 z M 15.40625 19 L 17.5625 19 L 18.21875 22.75 A 1.0001 1.0001 0 0 0 18.96875 23.5625 C 19.970358 23.811991 20.922544 24.198791 21.78125 24.71875 A 1.0001 1.0001 0 0 0 22.875 24.6875 L 25.96875 22.46875 L 27.5 24 L 25.3125 27.15625 A 1.0001 1.0001 0 0 0 25.25 28.25 C 25.764864 29.107499 26.157282 30.034465 26.40625 31.03125 A 1.0001 1.0001 0 0 0 27.21875 31.78125 L 31 32.40625 L 31 34.5625 L 27.21875 35.21875 A 1.0001 1.0001 0 0 0 26.40625 35.96875 C 26.159362 36.964502 25.764703 37.892769 25.25 38.75 A 1.0001 1.0001 0 0 0 25.3125 39.875 L 27.53125 42.96875 L 26 44.5 L 22.875 42.3125 A 1.0001 1.0001 0 0 0 21.78125 42.28125 C 20.927986 42.801023 19.966987 43.184978 18.96875 43.4375 A 1.0001 1.0001 0 0 0 18.25 44.25 L 17.5625 48 L 15.375 48 L 14.75 44.25 A 1.0001 1.0001 0 0 0 14 43.46875 C 12.997348 43.220821 12.050726 42.800278 11.1875 42.28125 A 1.0001 1.0001 0 0 0 10.125 42.34375 L 7 44.5 L 5.46875 42.96875 L 7.65625 39.90625 A 1.0001 1.0001 0 0 0 7.6875 38.78125 C 7.1622721 37.914077 6.7806551 36.975473 6.53125 35.96875 A 1.0001 1.0001 0 0 0 5.71875 35.21875 L 2 34.5625 L 2 32.375 L 5.71875 31.75 A 1.0001 1.0001 0 0 0 6.53125 31.03125 C 6.7838368 30.020903 7.1645891 29.054455 7.6875 28.1875 A 1.0001 1.0001 0 0 0 7.65625 27.09375 L 5.5 24 L 7.03125 22.4375 L 10.125 24.65625 A 1.0001 1.0001 0 0 0 11.21875 24.6875 C 12.076547 24.171006 13.026885 23.808802 14.03125 23.5625 A 1.0001 1.0001 0 0 0 14.78125 22.75 L 15.40625 19 z M 16.5 27.34375 C 13.105472 27.34375 10.34375 30.106516 10.34375 33.5 C 10.34375 36.893717 13.106283 39.65625 16.5 39.65625 C 19.893484 39.65625 22.65625 36.894528 22.65625 33.5 C 22.65625 30.106516 19.894528 27.34375 16.5 27.34375 z M 16.5 29.34375 C 18.813472 29.34375 20.65625 31.187484 20.65625 33.5 C 20.65625 35.813472 18.812516 37.65625 16.5 37.65625 C 14.187717 37.65625 12.34375 35.812283 12.34375 33.5 C 12.34375 31.187484 14.186528 29.34375 16.5 29.34375 z"></path>
</svg>
