<svg xmlns="http://www.w3.org/2000/svg" viewBox="0 0 50 50" enable-background="new 0 0 50 50">
    <path fill="#1289FE" d="M 11 0 C 10.477778 0 9.9395305 0.18546949 9.5625 0.5625 C 9.1854695 0.93953051 9 1.4777778 9 2 L 9 4 L 2 4 C 1.4777778 4 0.93953051 4.1854695 0.5625 4.5625 C 0.18546949 4.9395305 0 5.4777778 0 6 L 0 48 C 0 48.522222 0.18546949 49.060469 0.5625 49.4375 C 0.93953051 49.814531 1.4777778 50 2 50 L 48 50 C 48.522222 50 49.060469 49.814531 49.4375 49.4375 C 49.814531 49.060469 50 48.522222 50 48 L 50 6 C 50 5.4777778 49.814531 4.9395305 49.4375 4.5625 C 49.060469 4.1854695 48.522222 4 48 4 L 41 4 L 41 2 C 41 1.4777778 40.814531 0.93953051 40.4375 0.5625 C 40.060469 0.18546949 39.522222 0 39 0 L 37 0 C 36.477778 0 35.939531 0.18546949 35.5625 0.5625 C 35.185469 0.93953051 35 1.4777778 35 2 L 35 4 L 15 4 L 15 2 C 15 1.4777778 14.814531 0.93953051 14.4375 0.5625 C 14.060469 0.18546949 13.522222 0 13 0 L 11 0 z M 11 2 L 13 2 L 13 8 L 11 8 L 11 2 z M 37 2 L 39 2 L 39 8 L 37 8 L 37 2 z M 2 6 L 9 6 L 9 8 C 9 8.5222222 9.1854695 9.0604695 9.5625 9.4375 C 9.9395305 9.8145305 10.477778 10 11 10 L 13 10 C 13.522222 10 14.060469 9.8145305 14.4375 9.4375 C 14.814531 9.0604695 15 8.5222222 15 8 L 15 6 L 35 6 L 35 8 C 35 8.5222222 35.185469 9.0604695 35.5625 9.4375 C 35.939531 9.8145305 36.477778 10 37 10 L 39 10 C 39.522222 10 40.060469 9.8145305 40.4375 9.4375 C 40.814531 9.0604695 41 8.5222222 41 8 L 41 6 L 48 6 L 48 14 L 2 14 L 2 6 z M 2 16 L 48 16 L 48 48 L 2 48 L 2 16 z M 17.59375 22.40625 C 11.79375 22.40625 11.7125 27.9 11.8125 29 L 14 29 C 14 28.4 14.19375 24.40625 17.59375 24.40625 C 20.79375 24.40625 21.1875 27.1875 21.1875 27.6875 C 20.9875 33.6875 11.5125 32.60625 11.3125 40.90625 L 23.3125 40.90625 L 23.3125 38.90625 L 13.8125 38.90625 C 14.8125 34.30625 23.40625 34.0875 23.40625 27.6875 C 23.40625 26.7875 22.99375 22.40625 17.59375 22.40625 z M 32.8125 22.5 C 25.8125 22.5 26 31.10625 26 32.40625 C 26 33.30625 25.7125 41.1875 32.3125 41.1875 C 38.3125 41.1875 38.5 35.7 38.5 35 C 38.5 34.1 38.20625 29 32.90625 29 C 30.10625 29 28.8125 30.60625 28.3125 31.40625 L 28.1875 31.3125 C 28.1875 30.6125 28.1875 24.3125 32.6875 24.3125 C 35.0875 24.3125 35.7125 26.1875 35.8125 27.1875 L 38 27.1875 C 37.9 25.6875 37.1125 22.5 32.8125 22.5 z M 32.40625 30.8125 C 36.00625 30.8125 36.09375 34.4 36.09375 35 C 36.09375 35.6 35.80625 39.09375 32.40625 39.09375 C 28.80625 39.09375 28.59375 35.6 28.59375 35 C 28.59375 34.4 28.80625 30.8125 32.40625 30.8125 z"></path>
</svg>
