<svg xmlns="http://www.w3.org/2000/svg" viewBox="0 0 50 50">
    <path fill="#1289FE" d="M 13 0 C 12.4 0 12 0.4 12 1 L 12 7 C 12 7.6 12.4 8 13 8 L 15 8 C 15.6 8 16 7.6 16 7 L 16 1 C 16 0.4 15.6 0 15 0 L 13 0 z M 35 0 C 34.4 0 34 0.4 34 1 L 34 7 C 34 7.6 34.4 8 35 8 L 37 8 C 37.6 8 38 7.6 38 7 L 38 1 C 38 0.4 37.6 0 37 0 L 35 0 z M 4 4 C 2.8 4 2 4.8 2 6 L 2 14 L 48 14 L 48 6 C 48 4.8 47.2 4 46 4 L 40 4 L 40 7 C 40 8.7 38.7 10 37 10 L 35 10 C 33.3 10 32 8.7 32 7 L 32 4 L 18 4 L 18 7 C 18 8.7 16.7 10 15 10 L 13 10 C 11.3 10 10 8.7 10 7 L 10 4 L 4 4 z M 2 16 L 2 46 C 2 47.2 2.8 48 4 48 L 46 48 C 47.2 48 48 47.2 48 46 L 48 16 L 2 16 z M 17 23 C 17.25 23 17.4875 23.1125 17.6875 23.3125 C 18.0875 23.7125 18.0875 24.2875 17.6875 24.6875 L 13.40625 29 L 36.59375 29 L 32.3125 24.6875 C 31.9125 24.2875 31.9125 23.7125 32.3125 23.3125 C 32.7125 22.9125 33.2875 22.9125 33.6875 23.3125 L 40.40625 30 L 33.6875 36.6875 C 33.4875 36.8875 33.3 37 33 37 C 32.7 37 32.5125 36.8875 32.3125 36.6875 C 31.9125 36.2875 31.9125 35.7125 32.3125 35.3125 L 36.59375 31 L 13.40625 31 L 17.6875 35.3125 C 18.0875 35.7125 18.0875 36.2875 17.6875 36.6875 C 17.4875 36.8875 17.3 37 17 37 C 16.7 37 16.5125 36.8875 16.3125 36.6875 L 9.59375 30 L 16.3125 23.3125 C 16.5125 23.1125 16.75 23 17 23 z"></path>
</svg>
