<svg xmlns="http://www.w3.org/2000/svg" width="50" height="50" viewBox="0 0 50 50">
    <path fill="#1289FE" d="M 11 0 C 9.9069372 0 9 0.9069372 9 2 L 9 4 L 2 4 C 0.9069372 4 0 4.9069372 0 6 L 0 48 C 0 49.093063 0.9069372 50 2 50 L 46 50 C 47.093063 50 48 49.093063 48 48 L 48 39 A 1.0001 1.0001 0 1 0 46 39 L 46 48 L 2 48 L 2 16 L 46 16 L 46 23 A 1.0001 1.0001 0 1 0 48 23 L 48 6 C 48 4.9069372 47.093063 4 46 4 L 39 4 L 39 2 C 39 0.9069372 38.093063 0 37 0 L 35 0 C 33.906937 0 33 0.9069372 33 2 L 33 4 L 15 4 L 15 2 C 15 0.9069372 14.093063 0 13 0 L 11 0 z M 11 2 L 13 2 L 13 8 L 11 8 L 11 5.1875 A 1.0001 1.0001 0 0 0 11 4.78125 L 11 2 z M 35 2 L 37 2 L 37 4.6875 A 1.001098 1.001098 0 0 0 37 5.28125 L 37 8 L 35 8 L 35 2 z M 2 6 L 9 6 L 9 8 C 9 9.0930628 9.9069372 10 11 10 L 13 10 C 14.093063 10 15 9.0930628 15 8 L 15 6 L 33 6 L 33 8 C 33 9.0930628 33.906937 10 35 10 L 37 10 C 38.093063 10 39 9.0930628 39 8 L 39 6 L 46 6 L 46 14 L 2 14 L 2 6 z M 41.84375 23.09375 A 1.0001 1.0001 0 0 0 41.34375 24.8125 L 46.53125 30 L 27 30 A 1.0001 1.0001 0 0 0 26.90625 30 A 1.001098 1.001098 0 0 0 27 32 L 46.53125 32 L 41.34375 37.1875 A 1.0001 1.0001 0 1 0 42.75 38.59375 L 49.65625 31.71875 L 50.34375 31 L 49.65625 30.28125 L 42.75 23.40625 A 1.0001 1.0001 0 0 0 41.9375 23.09375 A 1.0001 1.0001 0 0 0 41.84375 23.09375 z"></path>
</svg>
