<svg xmlns="http://www.w3.org/2000/svg" viewBox="0 0 50 50">
    <path fill="#a8b6bf" d="M 35.6875 2 A 1.0001 1.0001 0 0 0 35.09375 2.3125 L 9.09375 28.28125 A 1.0001 1.0001 0 0 0 8.875 28.65625 L 2.0625 46.65625 A 1.0001 1.0001 0 0 0 3.34375 47.9375 L 21.34375 41.125 A 1.0001 1.0001 0 0 0 21.71875 40.90625 L 23 39.625 A 1.0001 1.0001 0 0 0 23.53125 39.09375 L 47.6875 14.90625 A 1.0001 1.0001 0 1 0 46.28125 13.5 L 22.34375 37.40625 C 21.625688 37.075323 20.527695 36.701592 19.125 36.75 C 19.288176 36.305056 19.534166 36.03787 19.625 35.5 C 19.844658 34.199307 19.727748 32.602748 18.5625 31.4375 C 17.393826 30.268826 15.784265 30.16177 14.46875 30.40625 C 14.002945 30.49282 13.77649 30.729505 13.375 30.875 C 13.38945 30.735531 13.43369 30.710376 13.4375 30.5625 C 13.459881 29.694911 13.257366 28.622358 12.59375 27.65625 L 36.5 3.71875 A 1.0001 1.0001 0 0 0 35.78125 2 A 1.0001 1.0001 0 0 0 35.6875 2 z M 11.09375 29.15625 C 11.342208 29.614149 11.448925 30.057143 11.4375 30.5 C 11.41996 31.179905 11.202217 31.766139 11.0625 32.15625 A 1.0001 1.0001 0 0 0 12.625 33.28125 C 12.908615 33.057235 13.864015 32.55127 14.8125 32.375 C 15.760985 32.19873 16.604924 32.29242 17.15625 32.84375 C 17.711002 33.398502 17.815342 34.245443 17.65625 35.1875 C 17.497158 36.129557 17.002603 37.080596 16.8125 37.34375 A 1.0001 1.0001 0 0 0 17.9375 38.90625 C 19.205435 38.519143 20.196709 38.657399 20.875 38.875 L 20.40625 39.34375 L 9.375 43.53125 L 6.5 40.625 L 10.65625 29.59375 L 11.09375 29.15625 z"></path>
</svg>
