<svg xmlns="http://www.w3.org/2000/svg" xmlns:xlink="http://www.w3.org/1999/xlink" version="1.1" x="0px" y="0px" viewBox="0 0 100 125" enable-background="new 0 0 100 100" xml:space="preserve"><path fill="#2C93FF" d="M47.837,95c-14.705,0-27.048-5.541-34.754-15.602C5.257,69.182,3.001,55.047,6.893,40.617  c2.664-9.866,8.564-18.812,16.615-25.189C32.119,8.606,42.647,5,53.956,5c12.486,0,23.641,5.218,30.602,14.316  c6.784,8.867,8.871,20.61,5.726,32.219c-3.671,13.637-11.531,22.11-20.515,22.11c-3.559,0-6.497-1.361-8.498-3.936  c-1.02-1.311-1.71-2.812-2.143-4.386c-3.834,5.088-9.501,8.092-15.907,8.092c-5.452,0-9.917-2.085-12.914-6.03  c-3.86-5.083-4.845-12.853-2.634-20.784c3.653-13.271,14.144-21.518,27.376-21.518c4.062,0,8.007,1.389,11.248,3.896l0.5-1.863  c0.304-1.13,1.466-1.8,2.597-1.497c1.13,0.303,1.801,1.466,1.497,2.596l-1.317,4.911c-0.02,0.269-0.089,0.533-0.209,0.779  l-6.087,22.69c-1.021,4.029-0.496,8.154,1.338,10.513c1.186,1.525,2.92,2.299,5.152,2.299c6.979,0,13.272-7.271,16.423-18.977  c2.84-10.48,1.063-20.614-5-28.539C75.039,13.85,65.112,9.238,53.956,9.238c-20.458,0-37.727,13.054-42.971,32.482  C7.439,54.866,9.43,67.66,16.448,76.821c6.886,8.99,18.034,13.94,31.39,13.94c20.083,0,35.773-10.617,43.044-29.129  c0.428-1.089,1.659-1.626,2.747-1.197c1.09,0.428,1.626,1.658,1.198,2.747C86.883,83.403,69.757,95,47.837,95z M55.05,29.322  c-11.241,0-20.166,7.055-23.292,18.41c-1.859,6.67-1.138,13.057,1.925,17.09c2.195,2.891,5.404,4.355,9.539,4.355  c7.626,0,13.74-5.232,15.958-13.656c0.002-0.007,0.003-0.013,0.005-0.02l5.894-21.968C62.37,30.879,58.7,29.322,55.05,29.322z"/></svg>
