<svg xmlns="http://www.w3.org/2000/svg" xmlns:xlink="http://www.w3.org/1999/xlink" version="1.1" x="0px" y="0px" viewBox="0 0 100 125" enable-background="new 0 0 100 100" xml:space="preserve"><g><path fill="#1289FE" d="M91.016,38.031h-7.983V26.064c0-0.033-0.008-0.064-0.01-0.098c-0.005-0.092-0.01-0.184-0.027-0.275   c-0.014-0.069-0.039-0.134-0.06-0.2c-0.017-0.053-0.028-0.106-0.049-0.157c-0.031-0.075-0.073-0.145-0.113-0.214   c-0.021-0.038-0.038-0.079-0.063-0.116c-0.071-0.107-0.153-0.207-0.244-0.297L63.322,5.561c-0.007-0.007-0.016-0.012-0.022-0.019   c-0.083-0.081-0.173-0.155-0.269-0.219c-0.052-0.035-0.107-0.059-0.16-0.087c-0.057-0.03-0.11-0.064-0.17-0.089   c-0.066-0.028-0.135-0.043-0.203-0.063c-0.052-0.015-0.102-0.035-0.154-0.045C62.22,5.013,62.094,5,61.968,5H18.883   c-1.057,0-1.915,0.857-1.915,1.915v31.116H8.981c-1.143,0-2.066,0.93-2.06,2.074L6.915,69.473c0.002,1.155,0.938,2.07,2.083,2.07   h7.97v21.542c0,1.058,0.857,1.915,1.915,1.915h62.234c1.058,0,1.915-0.857,1.915-1.915V71.543h7.983   c1.141,0,2.069-0.915,2.069-2.07V40.105C93.085,38.961,92.156,38.031,91.016,38.031z M63.883,11.537l12.611,12.612H63.883V11.537z    M20.798,8.83h39.255v17.234c0,1.057,0.857,1.915,1.915,1.915h17.234v10.053H20.798V8.83z M79.202,91.17H20.798V71.543h58.404   V91.17z"/></g></svg>
