<svg xmlns="http://www.w3.org/2000/svg" xmlns:xlink="http://www.w3.org/1999/xlink" version="1.1" x="0px" y="0px" viewBox="0 0 43 47.50125" enable-background="new 0 0 43 38.001" xml:space="preserve"><g><g><path fill="#1289FE" d="M4,8h35c2.209,0,4-1.792,4-4c0-2.211-1.789-4-3.998-4H4C1.792,0,0,1.789,0,4C0,6.208,1.792,8,4,8z     M39,14.999H4c-2.209,0-4,1.791-4,4.002c0,2.209,1.792,4,4,4h35c2.209,0,4-1.791,4-4C43,16.79,41.209,14.999,39,14.999z     M39,29.999H4c-2.209,0-4,1.791-4,4.002c0,2.209,1.792,4,4,4h35c2.209,0,4-1.791,4-4C43,31.79,41.209,29.999,39,29.999z"/></g></g></svg>
