<svg xmlns="http://www.w3.org/2000/svg" version="1" width="24" height="24" viewBox="0 0 24 24">
    <path fill="#1289FE" d="M 3 9 C 1.3431458 9 0 10.343146 0 12 C 0 13.656854 1.3431458 15 3 15 C 4.6568542 15 6 13.656854 6 12 C 6 10.343146 4.6568542 9 3 9 z M 12 9 C 10.343146 9 9 10.343146 9 12 C 9 13.656854 10.343146 15 12 15 C 13.656854 15 15 13.656854 15 12 C 15 10.343146 13.656854 9 12 9 z M 21 9 C 19.343146 9 18 10.343146 18 12 C 18 13.656854 19.343146 15 21 15 C 22.656854 15 24 13.656854 24 12 C 24 10.343146 22.656854 9 21 9 z"></path>
</svg>
