<svg xmlns="http://www.w3.org/2000/svg" xmlns:xlink="http://www.w3.org/1999/xlink" version="1.1" viewBox="0 0 100 100"><path fill="#fff" d="M56.3 52.2c-2 .9-4.1 1.5-6.3 1.5-2.3 0-4.1-.6-6.2-1.5-.4-.2-.8-.3-1.3-.3-1.5 0-2.7 1.2-2.7 2.6 0 2.6 4.5 3.5 6.6 4l-5.3 4.9c-.5.5-.8 1.1-.8 1.8 0 1.4 1.2 2.6 2.7 2.6.7 0 1.4-.2 1.9-.7l5-4.7 5 4.7c.5.5 1.2.7 1.9.7 1.5 0 2.7-1.2 2.7-2.6 0-.7-.3-1.3-.8-1.8l-5.3-4.9c2.2-.4 6.6-1.5 6.6-4 0-1.3-1.2-2.6-2.7-2.6-.2-.1-.6 0-1 .3M50.1 34.3c-5.3 0-9.2 4-9.2 8.7 0 4.6 4 8.7 9.2 8.7 5.3 0 9.2-4 9.2-8.7 0-4.6-4-8.7-9.2-8.7zm0 12.3c-2.2 0-3.8-1.7-3.8-3.6 0-1.9 1.7-3.6 3.8-3.6 2.2 0 3.8 1.7 3.8 3.6 0 1.9-1.7 3.6-3.8 3.6z"></path></svg>
