<svg xmlns="http://www.w3.org/2000/svg" xmlns:xlink="http://www.w3.org/1999/xlink" xmlns:a="http://ns.adobe.com/AdobeSVGViewerExtensions/3.0/" version="1.1" x="0px" y="0px" viewBox="-5.203 -11.311 100 125" enable-background="new -5.203 -11.311 100 100" xml:space="preserve">
    <path fill="#1289FE"  d="M44.672,77.378c-0.507,0-1.014-0.154-1.447-0.461c-0.863-0.613-1.246-1.703-0.957-2.721l4.097-14.441H17.266  C7.745,59.755,0,52.011,0,42.49V17.266C0,7.745,7.745,0,17.266,0h55.063c9.52,0,17.265,7.745,17.265,17.266V42.49  c0,9.521-7.745,17.266-17.265,17.266h-1.743l-24.478,17.17C45.678,77.228,45.175,77.378,44.672,77.378z M17.266,5  C10.502,5,5,10.502,5,17.266V42.49c0,6.764,5.502,12.266,12.266,12.266h32.406c0.783,0,1.521,0.367,1.994,0.992  c0.473,0.627,0.625,1.438,0.411,2.191l-3.079,10.852l19.363-13.582c0.421-0.295,0.922-0.453,1.436-0.453h2.532  c6.763,0,12.265-5.502,12.265-12.266V17.266C84.594,10.502,79.092,5,72.329,5H17.266z"/>
    <circle fill="#1289FE" cx="24.797" cy="30.418" r="5.479"/>
    <circle fill="#1289FE" cx="44.797" cy="30.688" r="5.479"/>
    <circle fill="#1289FE" cx="64.797" cy="30.689" r="5.479"/>
</svg>
