<svg xmlns="http://www.w3.org/2000/svg" xmlns:xlink="http://www.w3.org/1999/xlink" version="1.1" x="0px" y="0px" viewBox="0 0 100 125" style="enable-background:new 0 0 100 100;" xml:space="preserve"><path fill="#1289FE" d="M94,31.8c-0.9-1.2-2.3-1.8-3.9-1.8H37.9H5v3.1h27.2c-0.5,0.7-0.9,1.5-1.2,2.4l-1.1,3.9H12v3.1h17.1L26.8,51h-8v3h7.1  l-2.7,9.7c-0.4,1.6-0.2,3.3,0.7,4.4c0.9,1.2,2.3,1.8,3.9,1.8h52.8c3.1,0,6.1-2.4,6.9-5.5l7.2-28.3C95.2,34.6,94.9,33,94,31.8z   M84.6,63.7c-0.4,1.7-2.2,3.2-3.9,3.2H27.8c-0.6,0-1.1-0.2-1.4-0.6s-0.4-1.1-0.2-1.8l5.9-21.4l20.4,9.6c1.8,0.8,3.9,1.3,6,1.3  s4.4-0.4,6.6-1.3l24.8-9.3L84.6,63.7z M91.8,35.5l-1.1,4.3L63.9,49.9c-3.6,1.4-7.4,1.4-10.2,0.1l-20.8-9.9l1.1-3.8  c0.5-1.7,2.3-3.2,4-3.2h52.2c0.6,0,1.1,0.2,1.4,0.6C91.9,34.1,92,34.8,91.8,35.5z"/></svg>
