<svg xmlns="http://www.w3.org/2000/svg" xmlns:xlink="http://www.w3.org/1999/xlink" version="1.1" viewBox="0 0 100 100"><path fill="#fff" d="M63.8 41.8c1.5-.8 2.6-2.1 3.1-3.6-1.4.7-2.9 1.3-4.5 1.6-1.3-1.3-3.2-2-5.1-2-3.9 0-7 2.9-7 6.5 0 .5 0 1 .2 1.5-5.6-.4-10.9-2.8-14.5-6.9-.6 1-.9 2.1-.9 3.3 0 2.2 1.2 4.2 3.1 5.4-1.2 0-2.2-.3-3.2-.8v.1c-.1 3.1 2.3 5.7 5.6 6.3-.6.2-1.2.2-1.9.2-.4 0-.9 0-1.3-.1.9 2.6 3.6 4.5 6.5 4.5-2.5 1.8-5.5 2.8-8.7 2.8-.5 0-1.1 0-1.6-.1 3.2 1.9 6.9 2.9 10.8 2.9 8.1 0 14.9-4 18.2-10.9 1.1-2.4 1.8-4.9 1.8-7.5v-.9c1.4-.9 2.6-2 3.5-3.3-1.4.5-2.7.9-4.1 1z"></path></svg>
