<svg xmlns="http://www.w3.org/2000/svg" width="50" height="50" viewBox="0 0 50 50">
    <path fill="#fff" d="M 29 2 C 27.706 2 26.4525 2.07975 25.5625 2.96875 L 2.84375 25.6875 C 2.29675 26.2335 2 26.978 2 27.75 C 2 28.522 2.29775 29.23525 2.84375 29.78125 L 20.21875 47.15625 C 20.76375 47.70325 21.477 48 22.25 48 C 23.022 48 23.7665 47.70225 24.3125 47.15625 L 29.0625 42.40625 C 30.699793 45.703249 34.078331 48 38 48 C 43.511003 48 48 43.511003 48 38 C 48 34.078331 45.703249 30.699793 42.40625 29.0625 L 47.03125 24.4375 C 48.00625 23.4655 48.006 22.0405 48 20.6875 L 48 20.375 L 48 5.5 C 48 3.569 46.43 2 44.5 2 L 29.625 2 L 29 2 z M 39 8 C 40.656 8 42 9.343 42 11 C 42 12.657 40.656 14 39 14 C 37.344 14 36 12.657 36 11 C 36 9.343 37.344 8 39 8 z M 38 30 C 42.430123 30 46 33.569877 46 38 C 46 42.430123 42.430123 46 38 46 C 33.569877 46 30 42.430123 30 38 C 30 33.569877 33.569877 30 38 30 z M 37 33 L 37 37 L 33 37 L 33 39 L 37 39 L 37 43 L 39 43 L 39 39 L 43 39 L 43 37 L 39 37 L 39 33 L 37 33 z"></path>
</svg>
