<svg xmlns="http://www.w3.org/2000/svg" xmlns:xlink="http://www.w3.org/1999/xlink" version="1.1" x="0px" y="0px" viewBox="0 0 32 40" style="enable-background:new 0 0 32 32;" xml:space="preserve"><g><path fill="#1289FE" d="M18.728,32H1c-0.552,0-1-0.447-1-1c0-8.271,7.178-15,16-15c0.552,0,1,0.448,1,1c0,0.553-0.448,1-1,1   C8.643,18,2.593,23.297,2.041,30h16.687c0.553,0,1,0.447,1,1S19.28,32,18.728,32z"/><path fill="#1289FE" d="M16,18c-4.962,0-9-4.038-9-9s4.038-9,9-9c4.963,0,9,4.038,9,9S20.963,18,16,18z M16,2c-3.86,0-7,3.14-7,7s3.14,7,7,7   c3.859,0,7-3.14,7-7S19.859,2,16,2z"/><path fill="#1289FE" d="M30,25h-7.938c-0.553,0-1-0.447-1-1s0.447-1,1-1H30c0.553,0,1,0.447,1,1S30.553,25,30,25z"/><path fill="#1289FE" d="M26.031,28.969c-0.553,0-1-0.447-1-1v-7.938c0-0.553,0.447-1,1-1s1,0.447,1,1v7.938   C27.031,28.521,26.584,28.969,26.031,28.969z"/></g></svg>
