<svg xmlns="http://www.w3.org/2000/svg" viewBox="0 0 32 32">
    <path fill="#9ebfd8" d="M 3.71875 2.28125 L 2.28125 3.71875 L 8.5 9.90625 L 10 11.40625 L 13.0625 14.46875 L 16.53125 17.9375 L 19.59375 21 L 21.5 22.9375 L 28.28125 29.71875 L 29.71875 28.28125 L 23.5 22.0625 C 27.73244 19.963291 30.57328 16.852992 30.75 16.65625 L 31.34375 16 L 30.75 15.34375 C 30.482 15.04475 24.086 8 16 8 C 14.041477 8 12.194182 8.4306209 10.5 9.0625 L 3.71875 2.28125 z M 16 10 C 18.151 10 20.187 10.6065 22 11.4375 C 22.643 12.5175 23 13.734 23 15 C 23 16.815688 22.295538 18.475551 21.15625 19.71875 L 18.3125 16.875 C 18.72898 16.361562 19 15.71383 19 15 C 19 13.343 17.657 12 16 12 C 15.28617 12 14.638325 12.270907 14.125 12.6875 L 12.09375 10.65625 C 13.336871 10.272132 14.637999 10 16 10 z M 6.6875 10.90625 C 3.4815 12.87825 1.4 15.17575 1.25 15.34375 L 0.65625 16 L 1.25 16.65625 C 1.508 16.94425 7.4285 23.4275 15.0625 23.9375 C 15.3715 23.9705 15.683 24 16 24 C 16.317 24 16.6285 23.9705 16.9375 23.9375 C 17.7605 23.8825 18.56475 23.77175 19.34375 23.59375 L 17.5625 21.8125 C 17.0555 21.9295 16.541 22 16 22 C 12.141 22 9 18.86 9 15 C 9 14.469 9.0705 13.9495 9.1875 13.4375 L 6.6875 10.90625 z M 7.25 12.9375 C 7.091 13.6115 7 14.3 7 15 C 7 16.737 7.48875 18.34175 8.34375 19.71875 C 6.05475 18.40775 4.30525 16.866 3.40625 16 C 4.15425 15.277 5.496 14.0765 7.25 12.9375 z M 24.75 12.9375 C 26.504 14.0765 27.84475 15.278 28.59375 16 C 27.69575 16.868 25.918 18.438 23.625 19.75 C 24.483 18.372 25 16.74 25 15 C 25 14.3 24.909 13.6105 24.75 12.9375 z"></path>
</svg>
