<svg xmlns="http://www.w3.org/2000/svg" xmlns:xlink="http://www.w3.org/1999/xlink" xmlns:sketch="http://www.bohemiancoding.com/sketch/ns" viewBox="0 0 30 37.5" version="1.1" x="0px" y="0px"><g stroke="none" stroke-width="1" fill="none" fill-rule="evenodd" sketch:type="MSPage"><g sketch:type="MSArtboardGroup" transform="translate(-270.000000, -90.000000)" fill="#1289FE"><path fill="#1289FE" d="M291.767572,111.317939 L299.545747,103.539764 L296.71732,100.711337 L288.939145,108.489512 L287.868467,112.388617 L291.767572,111.317939 Z M290.951238,110.501604 L289.755479,109.305846 L289.289353,110.96773 L290.951238,110.501604 Z M293,103.014443 L293,99.2774212 L286.761657,104.051112 L289.36184,106.652603 L288.654734,107.359709 L285.960528,104.664149 L283,106.929598 L280.041535,104.665728 L273.710448,111 L287.212759,111 L286.938163,112 L272,112 L272,96 L294,96 L294,102.014443 L293,103.014443 Z M293,98.0205682 L293,97 L273,97 L273,98.0205682 L283,105.68741 L293,98.0205682 Z M273,110.296236 L273,99.2774212 L279.240407,104.052691 L273,110.296236 Z M295.303106,103.539764 L296.71732,104.953978 L291.767572,109.903725 L290.353359,108.489512 L295.303106,103.539764 Z M296.71732,102.125551 L298.131533,103.539764 L297.424426,104.246871 L296.010213,102.832657 L296.71732,102.125551 Z" sketch:type="MSShapeGroup"/></g></g></svg>
