<svg enable-background="new 0 0 50 50" id="Layer_1" version="1.1" viewBox="0 0 50 50" xml:space="preserve" xmlns="http://www.w3.org/2000/svg" xmlns:xlink="http://www.w3.org/1999/xlink"><path d="M45,1H5C2.8,1,1,2.8,1,5v40c0,2.2,1.8,4,4,4h40c2.2,0,4-1.8,4-4V5C49,2.8,47.2,1,45,1z" fill="#400090"/><g id="Y_x21_"><path d="M32.9,12c-1.2,0.3-2.6,0.3-3.7,0c-1,1.8-4.5,8.4-6.8,12.1c-2.3-3.8-5.1-9-6.9-12.1   c-1.4,0.3-2,0.3-3.5,0c2.8,4.2,7.1,12.1,8.7,14.7V38c0,0,1.1-0.4,1.7-0.4c0.7,0,1.7,0.4,1.7,0.4V26.7C27,21.7,32.9,12,32.9,12z" fill="#FFFFFF" id="Y_1_"/><path d="M32.8,34.5c-1.1,0-1.7,0.8-1.7,1.7c0,1,0.7,1.7,1.7,1.7c0.7,0,1.7-0.5,1.7-1.7   C34.5,35.3,33.8,34.5,32.8,34.5z" fill="#FFFFFF" id="O_2_"/><path d="M34.5,13.7c-0.9,8.7-2.6,19.1-2.6,19.1s1.3-0.9,2.2,0c0,0,3.9-15.5,3.9-19   C38,12,35.4,11.1,34.5,13.7z" fill="#FFFFFF" id="I_1_"/></g></svg>
